<svg width="116" height="101" viewBox="0 0 116 101" fill="none" xmlns="http://www.w3.org/2000/svg">
<path d="M110.603 50.3954C112.748 50.0901 114.256 48.1003 113.81 45.9806C112.305 38.8282 109.453 32.0189 105.396 25.9257C101.351 19.8492 96.1962 14.6178 90.2181 10.5031C88.4183 9.2643 85.9814 9.91017 84.8805 11.8007C83.7893 13.6745 84.4248 16.0631 86.1961 17.3089C91.1783 20.8127 95.4814 25.2233 98.8775 30.3247C102.275 35.4277 104.692 41.1131 106.017 47.0864C106.487 49.2027 108.457 50.7009 110.603 50.3954Z" fill="#AFCB08"/>
<path d="M92.6123 98.4251C94.0237 100.081 96.5143 100.279 98.0603 98.7449C103.224 93.621 107.378 87.5432 110.288 80.8311C113.2 74.1146 114.802 66.9102 115.021 59.6092C115.087 57.4315 113.253 55.735 111.09 55.8189C108.922 55.9029 107.247 57.7434 107.158 59.9249C106.906 66.0307 105.533 72.0487 103.096 77.6703C100.659 83.2915 97.2096 88.3969 92.9341 92.7338C91.4052 94.2847 91.2012 96.7695 92.6123 98.4251Z" fill="#9A95C8"/>
<path d="M82.4177 10.4079C83.413 8.46927 82.6579 6.06856 80.6614 5.19988C74.0086 2.30514 66.8568 0.709484 59.5879 0.511913C52.3085 0.314062 45.0713 1.52264 38.2646 4.05918C36.2387 4.81416 35.3675 7.15569 36.2552 9.14054C37.1469 11.1346 39.4746 12.0099 41.5185 11.275C47.2331 9.22015 53.2875 8.24461 59.3761 8.4101C65.4636 8.57555 71.4559 9.87814 77.0512 12.2396C79.0562 13.0858 81.4229 12.3458 82.4177 10.4079Z" fill="#9A95C8"/>
<path d="M33.3487 10.5825C32.3399 8.65091 29.951 7.90019 28.0989 9.05182C21.6507 13.0614 16.0496 18.333 11.6354 24.5682C7.21348 30.8142 4.08791 37.8781 2.42909 45.3373C1.95756 47.4576 3.43459 49.464 5.57073 49.7929C7.71892 50.1238 9.716 48.6324 10.2147 46.5057C11.6747 40.2793 14.3233 34.3842 18.026 29.1541C21.7276 23.9255 26.397 19.4827 31.7649 16.0623C33.6033 14.8909 34.3571 12.5131 33.3487 10.5825Z" fill="#D92121"/>
<path d="M4.70324 54.7042C2.54136 54.5657 0.664699 56.2068 0.675045 58.3736C0.711559 66.0196 2.26571 73.5951 5.26069 80.6502C8.24768 87.6864 12.5967 94.0375 18.0401 99.3396C19.6075 100.866 22.1176 100.643 23.5188 98.9666C24.9079 97.3043 24.6803 94.841 23.1418 93.3118C18.6137 88.8112 14.9874 83.4587 12.477 77.545C9.96547 71.6288 8.62893 65.2882 8.52829 58.88C8.49424 56.7117 6.8668 54.8428 4.70324 54.7042Z" fill="#00AEFF"/>
</svg>
