<svg width="260" height="260" viewBox="0 0 260 260" fill="none" xmlns="http://www.w3.org/2000/svg">
<path d="M74.6347 238.925C72.7334 242.7 74.2697 247.312 78.1813 248.972C94.4846 255.89 112.065 259.451 129.852 259.403C150.211 259.348 170.274 254.569 188.437 245.447C206.6 236.324 222.359 223.112 234.452 206.868C246.546 190.623 254.638 171.797 258.083 151.895C261.528 131.993 260.229 111.567 254.29 92.2523C248.351 72.9373 237.937 55.2689 223.882 40.6604C209.826 26.052 192.519 14.9089 173.344 8.12274C156.591 2.19363 138.819 -0.265932 121.122 0.863646C116.877 1.13458 113.879 4.97295 114.403 9.16004C114.926 13.3478 118.773 16.2952 123.021 16.0576C138.327 15.2012 153.679 17.3865 168.167 22.514C185.078 28.4988 200.341 38.3261 212.737 51.2096C225.133 64.0931 234.317 79.6752 239.555 96.7095C244.792 113.744 245.938 131.758 242.9 149.31C239.862 166.862 232.725 183.465 222.059 197.791C211.394 212.118 197.496 223.77 181.478 231.815C165.46 239.86 147.765 244.075 129.811 244.123C114.428 244.164 99.22 241.146 85.0778 235.275C81.1535 233.646 76.5359 235.151 74.6347 238.925Z" fill="#AFCB08"/>
<path d="M110.514 9.86779C109.815 5.72007 105.884 2.90245 101.774 3.8314C78.1151 9.17923 56.3739 20.981 39.0452 37.9717C19.9061 56.7376 7.08616 80.9149 2.34244 107.19C-2.40129 133.466 1.16331 160.553 12.5477 184.74C22.8553 206.64 39.1166 225.191 59.4348 238.35C62.9644 240.636 67.6352 239.348 69.7415 235.699C71.863 232.025 70.5761 227.355 67.0408 225.023C49.5025 213.452 35.4586 197.296 26.5066 178.277C16.4665 156.945 13.3228 133.056 17.5064 109.884C21.69 86.7109 32.9961 65.3884 49.8753 48.8384C64.9262 34.081 83.7515 23.7622 104.25 18.9477C108.379 17.9778 111.218 14.0433 110.514 9.86779Z" fill="#00AEFF"/>
</svg>
