<svg width="30" height="30" viewBox="0 0 30 30" fill="none" xmlns="http://www.w3.org/2000/svg">
<path d="M12.5 6.25H17.5C17.5 5.58696 17.2366 4.95107 16.7678 4.48223C16.2989 4.01339 15.663 3.75 15 3.75C14.337 3.75 13.7011 4.01339 13.2322 4.48223C12.7634 4.95107 12.5 5.58696 12.5 6.25ZM10.625 6.25C10.625 5.67547 10.7382 5.10656 10.958 4.57576C11.1779 4.04496 11.5002 3.56266 11.9064 3.15641C12.3127 2.75015 12.795 2.42789 13.3258 2.20803C13.8566 1.98816 14.4255 1.875 15 1.875C15.5745 1.875 16.1434 1.98816 16.6742 2.20803C17.205 2.42789 17.6873 2.75015 18.0936 3.15641C18.4998 3.56266 18.8221 4.04496 19.042 4.57576C19.2618 5.10656 19.375 5.67547 19.375 6.25H26.5625C26.8111 6.25 27.0496 6.34877 27.2254 6.52459C27.4012 6.7004 27.5 6.93886 27.5 7.1875C27.5 7.43614 27.4012 7.6746 27.2254 7.85041C27.0496 8.02623 26.8111 8.125 26.5625 8.125H24.9125L23.45 23.2637C23.3378 24.4237 22.7976 25.5003 21.9346 26.2835C21.0716 27.0668 19.9479 27.5004 18.7825 27.5H11.2175C10.0523 27.5001 8.92888 27.0663 8.06619 26.2831C7.2035 25.4999 6.66342 24.4235 6.55125 23.2637L5.0875 8.125H3.4375C3.18886 8.125 2.9504 8.02623 2.77459 7.85041C2.59877 7.6746 2.5 7.43614 2.5 7.1875C2.5 6.93886 2.59877 6.7004 2.77459 6.52459C2.9504 6.34877 3.18886 6.25 3.4375 6.25H10.625ZM13.125 12.1875C13.125 11.9389 13.0262 11.7004 12.8504 11.5246C12.6746 11.3488 12.4361 11.25 12.1875 11.25C11.9389 11.25 11.7004 11.3488 11.5246 11.5246C11.3488 11.7004 11.25 11.9389 11.25 12.1875V21.5625C11.25 21.8111 11.3488 22.0496 11.5246 22.2254C11.7004 22.4012 11.9389 22.5 12.1875 22.5C12.4361 22.5 12.6746 22.4012 12.8504 22.2254C13.0262 22.0496 13.125 21.8111 13.125 21.5625V12.1875ZM17.8125 11.25C17.5639 11.25 17.3254 11.3488 17.1496 11.5246C16.9738 11.7004 16.875 11.9389 16.875 12.1875V21.5625C16.875 21.8111 16.9738 22.0496 17.1496 22.2254C17.3254 22.4012 17.5639 22.5 17.8125 22.5C18.0611 22.5 18.2996 22.4012 18.4754 22.2254C18.6512 22.0496 18.75 21.8111 18.75 21.5625V12.1875C18.75 11.9389 18.6512 11.7004 18.4754 11.5246C18.2996 11.3488 18.0611 11.25 17.8125 11.25Z" fill="white"/>
</svg>
