<svg width="30" height="30" viewBox="0 0 30 30" fill="none" xmlns="http://www.w3.org/2000/svg">
<path fill-rule="evenodd" clip-rule="evenodd" d="M21.5051 13.495L23.7501 11.25C24.4313 10.5687 24.7726 10.2275 24.9551 9.86C25.126 9.51496 25.215 9.13508 25.215 8.75C25.215 8.36492 25.126 7.98504 24.9551 7.64C24.7726 7.2725 24.4313 6.93125 23.7501 6.25C23.0688 5.56875 22.7276 5.2275 22.3601 5.045C22.015 4.87402 21.6351 4.78506 21.2501 4.78506C20.865 4.78506 20.4851 4.87402 20.1401 5.045C19.7726 5.2275 19.4313 5.56875 18.7501 6.25L16.4763 8.52375C17.6858 10.5945 19.4205 12.3093 21.5051 13.495ZM14.6588 10.3412L6.0713 18.9287C5.5388 19.4612 5.2738 19.7262 5.0988 20.0537C4.9238 20.3787 4.85005 20.7475 4.7038 21.485L3.9338 25.3312C3.8513 25.7462 3.8088 25.9537 3.92755 26.0725C4.0463 26.1912 4.25255 26.1488 4.6688 26.0662L8.51505 25.2962C9.25255 25.15 9.6213 25.0762 9.94755 24.9012C10.2726 24.7262 10.5388 24.4612 11.0701 23.93L19.6826 15.3175C17.6601 14.0513 15.9439 12.3522 14.6576 10.3425" fill="white"/>
</svg>
