<svg width="19" height="18" viewBox="0 0 19 18" fill="none" xmlns="http://www.w3.org/2000/svg">
<path fill-rule="evenodd" clip-rule="evenodd" d="M9.41653 17.0186C14.3026 17.0186 18.2636 13.2389 18.2636 8.57653C18.2636 3.91412 14.3026 0.134491 9.41653 0.134491C4.53043 0.134491 0.569458 3.91412 0.569458 8.57653C0.569458 13.2389 4.53043 17.0186 9.41653 17.0186ZM6.94522 8.19333C7.60871 8.19333 8.14657 7.6801 8.14657 7.04699C8.14657 6.41388 7.60871 5.90065 6.94522 5.90065C6.28174 5.90065 5.74388 6.41388 5.74388 7.04699C5.74388 7.6801 6.28174 8.19333 6.94522 8.19333ZM13.0892 7.04699C13.0892 7.68009 12.5513 8.19333 11.8878 8.19333C11.2243 8.19333 10.6865 7.68009 10.6865 7.04699C10.6865 6.41388 11.2243 5.90064 11.8878 5.90064C12.5513 5.90064 13.0892 6.41388 13.0892 7.04699ZM13.0892 9.83092H5.74388C5.74388 11.7844 7.32746 13.3679 9.2809 13.3679H9.55214C11.5056 13.3679 13.0892 11.7844 13.0892 9.83092Z" fill="#00AEFF"/>
</svg>
